<svg xmlns="http://www.w3.org/2000/svg" viewBox="0 0 20 20"><path d="M18.5,8.875a.375.375,0,0,0,0-.75H17V5.875h1.5a.375.375,0,0,0,0-.75H17V4.5A1.5,1.5,0,0,0,15.5,3h-.625V1.5a.375.375,0,0,0-.75,0V3h-2.25V1.5a.375.375,0,0,0-.75,0V3H8.875V1.5a.375.375,0,0,0-.75,0V3H5.875V1.5a.375.375,0,0,0-.75,0V3H4.5A1.5,1.5,0,0,0,3,4.5v.625H1.5a.375.375,0,0,0,0,.75H3v2.25H1.5a.375.375,0,0,0,0,.75H3v2.25H1.5a.375.375,0,0,0,0,.75H3v2.25H1.5a.375.375,0,0,0,0,.75H3V15.5A1.5,1.5,0,0,0,4.5,17h.625v1.5a.375.375,0,0,0,.75,0V17h2.25v1.5a.375.375,0,0,0,.75,0V17h2.25v1.5a.375.375,0,0,0,.75,0V17h2.25v1.5a.375.375,0,0,0,.75,0V17H15.5A1.5,1.5,0,0,0,17,15.5v-.625h1.5a.375.375,0,0,0,0-.75H17v-2.25h1.5a.375.375,0,0,0,0-.75H17V8.875ZM16,15.5a.5.5,0,0,1-.5.5H4.5a.5.5,0,0,1-.5-.5V4.5A.5.5,0,0,1,4.5,4h11a.5.5,0,0,1,.5.5Z"/><path d="M13.5,6h-7a.5.5,0,0,0-.5.5v7a.5.5,0,0,0,.5.5h7a.5.5,0,0,0,.5-.5v-7A.5.5,0,0,0,13.5,6ZM13,13.125a.375.375,0,0,1-.375.375H7.375A.375.375,0,0,1,7,13.125V7.875A.375.375,0,0,1,7.375,7.5h5.25A.375.375,0,0,1,13,7.875Z"/></svg>