<svg width="200" height="72" viewBox="0 0 200 72" fill="none" xmlns="http://www.w3.org/2000/svg">
<rect width="200" height="72" rx="4" fill="#1E2023"/>
<path d="M42.9913 18C41.7918 18 40.9922 18.6 40.9922 19.8V28H33.9952H28.9974C25.5989 28 23 30.6 23 34V44C23 47.4 25.5989 50 28.9974 50H33.9952H42.9913C44.1908 50 44.9904 49.2 44.9904 48V19.8C44.9904 18.6 44.1908 18 42.9913 18ZM40.9922 46H28.9974C27.7979 46 26.9983 45.2 26.9983 44V34C26.9983 32.8 27.7979 32 28.9974 32H40.9922V46Z" fill="white"/>
<path d="M65.9813 28H60.9835H55.9857C52.5872 28 49.9883 30.6 49.9883 34V44C49.9883 47.4 52.5872 50 55.9857 50H60.9835H65.9813C67.1808 50 67.9805 49.2 67.9805 48C67.9805 46.8 67.1808 46 65.9813 46H55.9857C54.7862 46 53.9865 45.2 53.9865 44V41H67.9805H69.9796C71.1791 41 71.9787 40.2 71.9787 39V34C71.9787 30.6 69.3799 28 65.9813 28ZM67.9805 37H53.9865V34C53.9865 32.8 54.7862 32 55.9857 32H65.9813C67.1808 32 67.9805 32.8 67.9805 34V37Z" fill="white"/>
<path d="M88.7714 28H85.9726H78.9756C77.7762 28 76.9765 28.8 76.9765 30V48.4C76.9765 49.6 77.7762 50 78.9756 50C80.1751 50 80.9748 49.6 80.9748 48.4V32H88.7714C89.9709 32 90.9704 33 90.9704 34.2V35C90.9704 36.2 91.7701 37 92.9695 37C94.169 37 94.9687 36.2 94.9687 35V34.2C94.9687 30.8 92.1699 28 88.7714 28Z" fill="white"/>
<path d="M114.96 28H109.962H104.964C101.566 28 98.967 30.6 98.967 34V44C98.967 47.4 101.566 50 104.964 50H109.163H114.96C116.16 50 116.959 49.2 116.959 48C116.959 46.8 116.16 46 114.96 46H104.964C103.765 46 102.965 45.2 102.965 44V41H116.959H118.958C120.158 41 120.957 40.2 120.957 39V34C120.957 30.6 118.359 28 114.96 28ZM116.959 37H102.965V34C102.965 32.8 103.765 32 104.964 32H114.96C116.16 32 116.959 32.8 116.959 34V37Z" fill="white"/>
<path d="M140.949 18H138.95H135.951C132.552 18 129.954 20.6 129.954 24V28H126.955C125.755 28 124.956 28.8 124.956 30C124.956 31.2 125.755 32 126.955 32H129.954V48.4C129.954 49.6 130.753 50 131.953 50C133.152 50 133.952 49.6 133.952 48.4V32H136.95C138.15 32 138.95 31.2 138.95 30C138.95 28.8 138.15 28 136.95 28H133.952V24C133.952 22.8 134.751 22 135.951 22H140.949C142.148 22 142.948 21.2 142.948 20C142.948 18.8 142.148 18 140.949 18Z" fill="white"/>
<path d="M162.939 35C162.939 33.8 162.139 33 160.94 33H146.946C145.747 33 144.947 33.8 144.947 35C144.947 36.2 145.747 37 146.946 37H160.94C162.139 37 162.939 36.2 162.939 35Z" fill="white"/>
<path d="M175.734 33.6L174.334 32.2L164.538 22.4C163.739 21.6 162.539 21.6 161.74 22.4C160.94 23.2 160.94 24.4 161.74 25.2L171.535 35L161.74 44.8C160.94 45.6 160.94 46.8 161.74 47.6C162.539 48.4 163.739 48.4 164.538 47.6L174.334 37.8L175.734 36.4C176.533 35.6 176.533 34.4 175.734 33.6Z" fill="white"/>
</svg>
